<?xml version="1.0" encoding="utf-8"?>
<!-- Generator: Adobe Illustrator 26.0.3, SVG Export Plug-In . SVG Version: 6.00 Build 0)  -->
<svg version="1.1" id="Слой_1" xmlns="http://www.w3.org/2000/svg" xmlns:xlink="http://www.w3.org/1999/xlink" x="0px" y="0px"
	 viewBox="0 0 120 120" style="enable-background:new 0 0 120 120;" xml:space="preserve">
<style type="text/css">
	.st0{fill:#E66EB1;}
	.st1{fill:#384A88;}
</style>
<g>
	<path class="st0" d="M7.5,80.2V6.9h57.6v8.4H16.6v21.5h29.4v8.4H16.6v34.9H7.5z"/>
</g>
<g>
	<path class="st1" d="M57.5,116.6L42.1,55.9h8.3l7.2,30.7c1.8,7.6,3.4,15.1,4.5,21h0.2c1-6,2.9-13.2,4.9-21.1l8.1-30.6h8.2l7.4,30.8
		c1.7,7.2,3.3,14.4,4.2,20.8h0.2c1.3-6.7,3-13.4,4.9-21l8-30.6h8L99,116.6h-8.2L83.2,85c-1.9-7.7-3.1-13.7-4-19.8H79
		c-1.1,6-2.4,12-4.7,19.8l-8.6,31.6H57.5z"/>
</g>
</svg>
